<?xml version="1.0" encoding="UTF-8"?>
<svg width="267px" height="68px" viewBox="0 0 267 68" version="1.1" xmlns="http://www.w3.org/2000/svg" xmlns:xlink="http://www.w3.org/1999/xlink">
    <!-- Generator: Sketch 49 (51002) - http://www.bohemiancoding.com/sketch -->
    <title>logo</title>
    <desc>Created with Sketch.</desc>
    <defs></defs>
    <g id="Symbols" stroke="none" stroke-width="1" fill="none" fill-rule="evenodd">
        <g id="Modules-/-Footer" transform="translate(-211.000000, -34.000000)" fill-rule="nonzero">
            <g id="Footer" transform="translate(0.406250, 0.066406)">
                <g id="logo" transform="translate(211.000000, 33.546875)">
                    <path d="M143.9,34.5 L134.3,34.5 L134.3,25.1 L131,25.1 L131,48 L134.3,48 L134.3,37.9 L143.9,37.9 L143.9,48 L147.2,48 L147.2,25.1 L143.9,25.1 L143.9,34.5 Z M203.2,24.6 L192.1,48 L195.4,48 L198.7,41.3 L207.2,41.3 L210.5,48 L213.8,48 L203.4,24.5 L203.2,24.6 Z M200.2,38.2 L203.2,31.1 L206.2,38.2 L200.2,38.2 Z M255.7,24.5 L255.4,24.6 L244.3,48 L247.6,48 L250.9,41.3 L259.4,41.3 L262.7,48 L266,48 L255.7,24.5 Z M252.4,38.2 L255.4,31.1 L258.4,38.2 L252.4,38.2 Z M87.2,48 L90.5,48 L90.5,28.5 L100.1,28.5 L100.1,48 L103.4,48 L103.4,25.1 L87.2,25.1 L87.2,48 Z M117.2,24.6 L106.1,48 L109.4,48 L112.7,41.3 L121.2,41.3 L124.5,48 L127.8,48 L117.4,24.5 L117.2,24.6 Z M114.3,38.2 L117.3,31.1 L120.3,38.2 L114.3,38.2 Z M190.2,26.3 C188.5,25.2 186.7,25.1 185.2,25.1 L178,25.1 L178,48.1 L181.1,48.1 L181.1,38.4 L185.2,38.4 C186.9,38.4 189,38.1 190.8,36.6 C191.9,35.6 193,34.3 193,32 C193,30.2 192.4,27.8 190.2,26.3 Z M185.2,35.4 L181.1,35.4 L181.1,27.9 L185.2,27.9 C186.4,27.9 189.9,28.4 189.9,31.8 C189.8,35.1 186.7,35.4 185.2,35.4 Z M237.8,24.5 L229.1,41.3 L220.4,24.5 L219.8,24.6 L216.5,48 L219.5,48 L221.7,33.8 L229.1,48 L236.5,33.4 L238.7,48 L241.7,48 L238.4,24.6 L237.8,24.5 Z M162.6,24.8 C156.2,24.8 150.9,30.1 150.9,36.6 C150.9,43.1 156.1,48.4 162.6,48.4 C169,48.4 174.3,43.1 174.3,36.6 C174.3,30 169.1,24.8 162.6,24.8 Z M162.6,45.4 C157.8,45.4 153.9,41.5 153.9,36.6 C153.9,31.7 157.8,27.8 162.6,27.8 C167.4,27.8 171.3,31.7 171.3,36.6 C171.3,41.4 167.4,45.4 162.6,45.4 Z" id="Shape" fill="#FFFFFF"></path>
                    <path d="M89.1,11.3 C89.1,10.5 89.1,9.7 89.1,8.7 L89.1,3.7 L88.1,3.7 L88.1,12.9 L89.3,12.9 L94.5,5.2 L94.6,5.2 C94.5,6.1 94.5,7 94.5,7.9 L94.5,13 L95.5,13 L95.5,3.7 L94.3,3.7 L89.1,11.3 Z M104,8 C104.7,7.8 105.2,7.6 105.6,7.2 C106,6.8 106.2,6.3 106.2,5.7 C106.2,5 105.9,4.5 105.4,4 C104.9,3.6 104.1,3.4 103.2,3.4 C102.6,3.4 102.1,3.5 101.6,3.6 C101.1,3.8 100.6,4 100.2,4.3 L100.7,5 C101.2,4.7 101.6,4.5 102,4.4 C102.4,4.3 102.8,4.2 103.2,4.2 C103.8,4.2 104.2,4.3 104.6,4.6 C104.9,4.9 105.1,5.2 105.1,5.7 C105.1,6.3 104.9,6.7 104.4,7 C103.9,7.3 103.3,7.5 102.4,7.5 L101.1,7.5 L101.1,8.4 L102.5,8.4 C103.4,8.4 104.1,8.5 104.6,8.8 C105.1,9.1 105.3,9.5 105.3,10.1 C105.3,10.7 105.1,11.1 104.7,11.5 C104.3,11.8 103.6,12 102.8,12 C102.4,12 101.9,11.9 101.5,11.8 C101,11.7 100.6,11.5 100.2,11.4 L100.2,12.4 C100.9,12.7 101.8,12.9 102.8,12.9 C104,12.9 104.9,12.7 105.5,12.2 C106.1,11.7 106.5,11.1 106.5,10.2 C106.5,9.6 106.3,9.1 105.9,8.7 C105.5,8.3 104.8,8.2 104,8 Z M117.4,3.7 L113.3,3.7 C113.2,5 113,6.4 112.5,8 C112,9.6 111.5,10.9 110.8,12 L110.1,12 L110.1,15.4 L111.1,15.4 L111.1,13 L117.5,13 L117.5,15.4 L118.5,15.4 L118.5,12 L117.3,12 L117.3,3.7 L117.4,3.7 Z M116.3,11.9 L112,11.9 C112.6,10.9 113.1,9.7 113.5,8.3 C113.9,6.9 114.2,5.7 114.3,4.6 L116.4,4.6 L116.4,11.9 L116.3,11.9 Z M125.4,3.6 L121.8,12.8 L122.9,12.8 L124,9.9 L127.7,9.9 L128.8,12.8 L129.9,12.8 L126.3,3.6 L125.4,3.6 Z M124.4,9 L125.5,6.2 C125.7,5.7 125.8,5.3 125.9,4.9 C126,5.4 126.2,5.9 126.3,6.2 L127.4,9 L124.4,9 Z M133,4.6 L135.9,4.6 L135.9,12.8 L137,12.8 L137,4.6 L139.9,4.6 L139.9,3.7 L133,3.7 L133,4.6 Z M144.2,12.8 L149.3,12.8 L149.3,11.8 L145.3,11.8 L145.3,8.4 L149.1,8.4 L149.1,7.6 L145.3,7.6 L145.3,4.6 L149.3,4.6 L149.3,3.7 L144.2,3.7 L144.2,12.8 Z M155.3,8.3 C155.1,9.6 154.9,10.4 154.8,10.9 C154.7,11.4 154.5,11.7 154.4,11.8 C154.2,12 154,12.1 153.8,12.1 C153.6,12.1 153.3,12 153.1,11.9 L153.1,12.8 C153.3,12.9 153.6,13 153.9,13 C154.4,13 154.9,12.8 155.2,12.5 C155.5,12.1 155.8,11.5 156,10.6 C156.2,9.7 156.4,8.2 156.7,6.2 L156.9,4.7 L159.9,4.7 L159.9,12.9 L161,12.9 L161,3.7 L156.1,3.7 C155.7,5.5 155.5,7.1 155.3,8.3 Z M171.8,8.2 C171.2,7.8 170.4,7.5 169.2,7.5 L167.4,7.5 L167.4,3.7 L166.3,3.7 L166.3,12.9 L169.4,12.9 C170.5,12.9 171.3,12.7 171.8,12.2 C172.4,11.7 172.7,11.1 172.7,10.2 C172.7,9.3 172.4,8.7 171.8,8.2 Z M169.3,11.9 L167.4,11.9 L167.4,8.5 L169.1,8.5 C170,8.5 170.6,8.6 171,8.9 C171.4,9.2 171.6,9.6 171.6,10.1 C171.6,11.3 170.8,11.9 169.3,11.9 Z M181.5,4.5 C182.2,4.5 182.9,4.7 183.6,5 L184.1,4.1 C183.4,3.7 182.5,3.6 181.6,3.6 C180.7,3.6 179.9,3.8 179.2,4.2 C178.5,4.6 178,5.1 177.7,5.8 C177.3,6.5 177.2,7.3 177.2,8.3 C177.2,9.8 177.6,11 178.3,11.8 C179,12.6 180.1,13 181.4,13 C182.3,13 183.1,12.9 183.8,12.6 L183.8,11.7 C183,11.9 182.2,12 181.6,12 C180.6,12 179.8,11.7 179.2,11 C178.6,10.3 178.4,9.4 178.4,8.2 C178.4,7 178.7,6.1 179.3,5.4 C179.7,4.8 180.5,4.5 181.5,4.5 Z M195.1,3.7 L193.9,3.7 L189.8,8.1 L189.8,3.7 L188.7,3.7 L188.7,12.9 L189.8,12.9 L189.8,8.2 L194,12.9 L195.3,12.9 L191.1,8.2 L195.1,3.7 Z M200.4,11.3 C200.4,10.5 200.4,9.7 200.4,8.7 L200.4,3.7 L199.4,3.7 L199.4,12.9 L200.6,12.9 L205.8,5.2 L205.9,5.2 C205.8,6.1 205.8,7 205.8,7.9 L205.8,13 L206.8,13 L206.8,3.7 L205.6,3.7 L200.4,11.3 Z M213.2,11.3 C213.2,10.5 213.2,9.7 213.2,8.7 L213.2,3.7 L212.2,3.7 L212.2,12.9 L213.4,12.9 L218.6,5.2 L218.7,5.2 C218.6,6.1 218.6,7 218.6,7.9 L218.6,13 L219.6,13 L219.6,3.7 L218.4,3.7 L213.2,11.3 Z M216,2.9 C216.8,2.9 217.3,2.7 217.7,2.4 C218.1,2.1 218.3,1.6 218.3,0.9 L217.3,0.9 C217.3,1.3 217.1,1.6 216.9,1.8 C216.7,2 216.4,2.1 215.9,2.1 C215.4,2.1 215.1,2 214.9,1.8 C214.7,1.6 214.6,1.3 214.6,0.9 L213.6,0.9 C213.6,1.6 213.8,2.1 214.2,2.4 C214.7,2.8 215.3,2.9 216,2.9 Z M237.3,3.7 L233.2,3.7 C233.1,5 232.9,6.4 232.4,8 C231.9,9.6 231.4,10.9 230.7,12 L230,12 L230,15.4 L231,15.4 L231,13 L237.4,13 L237.4,15.4 L238.4,15.4 L238.4,12 L237.2,12 L237.2,3.7 L237.3,3.7 Z M236.3,11.9 L231.9,11.9 C232.5,10.9 233,9.7 233.4,8.3 C233.8,6.9 234.1,5.7 234.2,4.6 L236.3,4.6 L236.3,11.9 Z M246.8,3.5 C245.4,3.5 244.4,3.9 243.7,4.7 C243,5.5 242.6,6.7 242.6,8.2 C242.6,9.7 243,10.9 243.7,11.7 C244.4,12.5 245.5,12.9 246.8,12.9 C248.1,12.9 249.2,12.5 249.9,11.6 C250.6,10.8 251,9.6 251,8.1 C251,6.6 250.6,5.5 249.9,4.6 C249.1,3.9 248.1,3.5 246.8,3.5 Z M249.1,11.1 C248.6,11.7 247.8,12.1 246.8,12.1 C245.8,12.1 245,11.8 244.5,11.1 C244,10.5 243.7,9.5 243.7,8.3 C243.7,7.1 244,6.1 244.5,5.5 C245,4.9 245.8,4.5 246.8,4.5 C247.8,4.5 248.6,4.8 249.1,5.5 C249.6,6.1 249.9,7.1 249.9,8.3 C249.8,9.5 249.6,10.4 249.1,11.1 Z M263.5,3.7 L260.6,11.3 L260.5,11.3 L257.6,3.7 L256,3.7 L256,12.9 L257,12.9 L257,7 C257,6.1 257,5.3 256.9,4.7 L257,4.7 L260.1,12.8 L261,12.8 L264.1,4.7 L264.2,4.7 C264,5.5 264,6.3 264,6.9 L264,12.8 L265.1,12.8 L265.1,3.7 L263.5,3.7 Z" id="Shape" fill="#758193"></path>
                    <path d="M94,62.6 L89.1,62.6 L89.1,58.7 L88,58.7 L88,67.9 L89.1,67.9 L89.1,63.6 L94,63.6 L94,67.9 L95.1,67.9 L95.1,58.7 L94,58.7 L94,62.6 Z M103.6,58.6 L99.9,67.9 L101,67.9 L102.1,65 L105.8,65 L106.9,67.9 L108,67.9 L104.4,58.6 L103.6,58.6 Z M102.5,64 L103.6,61.1 C103.8,60.6 103.9,60.2 104,59.8 C104.1,60.3 104.3,60.8 104.4,61.1 L105.5,64 L102.5,64 Z M116.4,63.8 C116.4,63.9 116.3,64.1 116.2,64.5 L116.1,64.5 C116,64.3 116,64.1 115.9,63.9 L113.2,58.6 L112,58.6 L115.6,65.5 C115.3,66.1 115,66.5 114.8,66.7 C114.5,66.9 114.1,67 113.7,67 C113.3,67 112.9,66.9 112.5,66.7 L112.5,67.7 C112.9,67.8 113.3,67.9 113.7,67.9 C114.2,67.9 114.7,67.8 115,67.7 C115.4,67.5 115.7,67.3 116,66.9 C116.3,66.5 116.6,66 117,65.2 L119.9,58.6 L118.8,58.6 L116.4,63.8 Z M131.1,58.6 L129.9,58.6 L125.7,63.1 L125.7,58.6 L124.6,58.6 L124.6,67.8 L125.7,67.8 L125.7,63.1 L130,67.8 L131.3,67.8 L127,63 L131.1,58.6 Z M138.6,58.6 L134.9,67.9 L136,67.9 L137.1,65 L140.8,65 L141.9,67.9 L143,67.9 L139.4,58.6 L138.6,58.6 Z M137.5,64 L138.6,61.1 C138.8,60.6 138.9,60.2 139,59.8 C139.1,60.3 139.3,60.8 139.4,61.1 L140.5,64 L137.5,64 Z M156,66.3 C156,65.5 156,64.7 156,63.7 L156,58.6 L155,58.6 L155,67.8 L156.2,67.8 L161.4,60 L161.5,60 C161.4,60.9 161.4,61.8 161.4,62.7 L161.4,67.8 L162.4,67.8 L162.4,58.6 L161.2,58.6 L156,66.3 Z M175.5,67.9 L176.6,67.9 L176.6,59.6 L181.3,59.6 L181.3,67.9 L182.4,67.9 L182.4,58.7 L175.5,58.7 L175.5,67.9 Z M190.9,58.6 L188.5,58.6 L188.5,67.8 L189.6,67.8 L189.6,64.2 L190.7,64.2 C191.9,64.2 192.8,63.9 193.4,63.4 C194,62.9 194.4,62.2 194.4,61.2 C194.4,59.5 193.2,58.6 190.9,58.6 Z M192.6,62.9 C192.2,63.2 191.5,63.4 190.5,63.4 L189.5,63.4 L189.5,59.6 L190.7,59.6 C191.5,59.6 192.2,59.7 192.6,60 C193,60.3 193.2,60.8 193.2,61.4 C193.3,62.1 193.1,62.5 192.6,62.9 Z M202.3,58.6 L198.6,67.9 L199.7,67.9 L200.8,65 L204.5,65 L205.6,67.9 L206.7,67.9 L203.1,58.6 L202.3,58.6 Z M201.3,64 L202.4,61.1 C202.6,60.6 202.7,60.2 202.8,59.8 C202.9,60.3 203.1,60.8 203.2,61.1 L204.3,64 L201.3,64 Z M218.2,58.6 L217,58.6 L212.8,63.1 L212.8,58.6 L211.7,58.6 L211.7,67.8 L212.8,67.8 L212.8,63.1 L217.1,67.8 L218.4,67.8 L214.1,63 L218.2,58.6 Z M222.1,59.6 L225,59.6 L225,67.9 L226.1,67.9 L226.1,59.6 L229,59.6 L229,58.6 L222.1,58.6 L222.1,59.6 Z M235,66.3 C235,65.5 235,64.7 235,63.7 L235,58.6 L234,58.6 L234,67.8 L235.2,67.8 L240.4,60 L240.5,60 C240.4,60.9 240.4,61.8 240.4,62.7 L240.4,67.8 L241.4,67.8 L241.4,58.6 L240.2,58.6 L235,66.3 Z M254,58.6 L252.8,58.6 L248.6,63.1 L248.6,58.6 L247.5,58.6 L247.5,67.8 L248.6,67.8 L248.6,63.1 L252.9,67.8 L254.2,67.8 L249.9,63 L254,58.6 Z M262.4,58.6 L261.5,58.6 L257.8,67.9 L258.9,67.9 L260,65 L263.7,65 L264.8,67.9 L265.9,67.9 L262.4,58.6 Z M260.4,64 L261.5,61.1 C261.7,60.6 261.8,60.2 261.9,59.8 C262,60.3 262.2,60.8 262.3,61.1 L263.4,64 L260.4,64 Z" id="Shape" fill="#758193"></path>
                    <path d="M43.9,13.1 C46.1,13.1 47.9,14.9 47.9,17.1 L47.9,33.3 C47.9,35.5 46.1,37.3 43.9,37.3 L23.2,37.3 C21,37.3 19.2,35.5 19.2,33.3 L19.2,17.1 C19.2,14.9 21,13.1 23.2,13.1 L43.9,13.1 Z M43.9,10.1 L23.2,10.1 C19.3,10.1 16.2,13.2 16.2,17.1 L16.2,33.3 C16.2,37.2 19.3,40.3 23.2,40.3 L43.8,40.3 C47.7,40.3 50.8,37.2 50.8,33.3 L50.8,17.1 C50.9,13.2 47.7,10.1 43.9,10.1 Z" id="Shape" fill="#E63201"></path>
                    <path d="M25.6,27.5 C27.8,27.5 29.6,29.3 29.6,31.5 L29.6,46.7 C29.6,48.9 27.8,50.7 25.6,50.7 L7,50.7 C4.8,50.7 3,48.9 3,46.7 L3,31.5 C3,29.3 4.8,27.5 7,27.5 L25.6,27.5 Z M25.6,24.5 L7,24.5 C3.1,24.5 0,27.6 0,31.5 L0,46.7 C0,50.6 3.1,53.7 7,53.7 L25.6,53.7 C29.5,53.7 32.6,50.6 32.6,46.7 L32.6,31.5 C32.6,27.6 29.5,24.5 25.6,24.5 Z" id="Shape" fill="#E63201"></path>
                    <path d="M61,27.5 C63.2,27.5 65,29.3 65,31.5 L65,46.7 C65,48.9 63.2,50.7 61,50.7 L42.4,50.7 C40.2,50.7 38.4,48.9 38.4,46.7 L38.4,31.5 C38.4,29.3 40.2,27.5 42.4,27.5 L61,27.5 Z M61,24.5 L42.4,24.5 C38.5,24.5 35.4,27.6 35.4,31.5 L35.4,46.7 C35.4,50.6 38.5,53.7 42.4,53.7 L61,53.7 C64.9,53.7 68,50.6 68,46.7 L68,31.5 C68,27.6 64.9,24.5 61,24.5 Z" id="Shape" fill="#E63201"></path>
                </g>
            </g>
        </g>
    </g>
</svg>