<?xml version="1.0" encoding="utf-8"?>
<!-- Generator: Adobe Illustrator 22.0.1, SVG Export Plug-In . SVG Version: 6.00 Build 0)  -->
<svg version="1.1" id="Слой_1" xmlns="http://www.w3.org/2000/svg" xmlns:xlink="http://www.w3.org/1999/xlink" x="0px" y="0px"
	 viewBox="0 0 270.5 73" style="enable-background:new 0 0 270.5 73;" xml:space="preserve">
<style type="text/css">
	.st0{fill-rule:evenodd;clip-rule:evenodd;}
	.st1{fill:#758193;}
	.st2{fill:#E63201;}
</style>
<g>
	<g>
		<path class="st0" d="M145.9,36.5h-9.6v-9.4H133V50h3.3V39.9h9.6V50h3.3V27.1h-3.3V36.5z M205.2,26.6L194.1,50h3.3l3.3-6.7h8.5
			l3.3,6.7h3.3l-10.4-23.5L205.2,26.6z M202.2,40.2l3-7.1l3,7.1H202.2z M257.7,26.5l-0.3,0.1L246.3,50h3.3l3.3-6.7h8.5l3.3,6.7h3.3
			L257.7,26.5z M254.4,40.2l3-7.1l3,7.1H254.4z M89.2,50h3.3V30.5h9.6V50h3.3V27.1H89.2V50z M119.2,26.6L108.1,50h3.3l3.3-6.7h8.5
			l3.3,6.7h3.3l-10.4-23.5L119.2,26.6z M116.3,40.2l3-7.1l3,7.1H116.3z M192.2,28.3c-1.7-1.1-3.5-1.2-5-1.2H180v23h3.1v-9.7h4.1
			c1.7,0,3.8-0.3,5.6-1.8c1.1-1,2.2-2.3,2.2-4.6C195,32.2,194.4,29.8,192.2,28.3z M187.2,37.4h-4.1v-7.5h4.1c1.2,0,4.7,0.5,4.7,3.9
			C191.8,37.1,188.7,37.4,187.2,37.4z M239.8,26.5l-8.7,16.8l-8.7-16.8l-0.6,0.1L218.5,50h3l2.2-14.2l7.4,14.2l7.4-14.6l2.2,14.6h3
			l-3.3-23.4L239.8,26.5z M164.6,26.8c-6.4,0-11.7,5.3-11.7,11.8c0,6.5,5.2,11.8,11.7,11.8c6.4,0,11.7-5.3,11.7-11.8
			C176.3,32,171.1,26.8,164.6,26.8z M164.6,47.4c-4.8,0-8.7-3.9-8.7-8.8c0-4.9,3.9-8.8,8.7-8.8c4.8,0,8.7,3.9,8.7,8.8
			C173.3,43.4,169.4,47.4,164.6,47.4z"/>
	</g>
</g>
<g>
	<g>
		<path class="st1" d="M91.1,13.3L91.1,13.3c0-0.8,0-1.6,0-2.6V5.7h-1v9.2h1.2l5.2-7.7h0.1c-0.1,0.9-0.1,1.8-0.1,2.7v5.1h1V5.7h-1.2
			L91.1,13.3z M106,10L106,10c0.7-0.2,1.2-0.4,1.6-0.8c0.4-0.4,0.6-0.9,0.6-1.5c0-0.7-0.3-1.2-0.8-1.7c-0.5-0.4-1.3-0.6-2.2-0.6
			c-0.6,0-1.1,0.1-1.6,0.2c-0.5,0.2-1,0.4-1.4,0.7l0.5,0.7c0.5-0.3,0.9-0.5,1.3-0.6c0.4-0.1,0.8-0.2,1.2-0.2c0.6,0,1,0.1,1.4,0.4
			c0.3,0.3,0.5,0.6,0.5,1.1c0,0.6-0.2,1-0.7,1.3c-0.5,0.3-1.1,0.5-2,0.5h-1.3v0.9h1.4c0.9,0,1.6,0.1,2.1,0.4
			c0.5,0.3,0.7,0.7,0.7,1.3c0,0.6-0.2,1-0.6,1.4c-0.4,0.3-1.1,0.5-1.9,0.5c-0.4,0-0.9-0.1-1.3-0.2c-0.5-0.1-0.9-0.3-1.3-0.4v1
			c0.7,0.3,1.6,0.5,2.6,0.5c1.2,0,2.1-0.2,2.7-0.7c0.6-0.5,1-1.1,1-2c0-0.6-0.2-1.1-0.6-1.5S106.8,10.2,106,10z M119.4,5.7h-4.1
			c-0.1,1.3-0.3,2.7-0.8,4.3c-0.5,1.6-1,2.9-1.7,4h-0.7v3.4h1v-2.4h6.4v2.4h1v-3.4h-1.2V5.7z M118.3,13.9H114c0.6-1,1.1-2.2,1.5-3.6
			c0.4-1.4,0.7-2.6,0.8-3.7h2.1V13.9z M127.4,5.6l-3.6,9.2h1.1l1.1-2.9h3.7l1.1,2.9h1.1l-3.6-9.2H127.4z M126.4,11l1.1-2.8
			c0.2-0.5,0.3-0.9,0.4-1.3c0.1,0.5,0.3,1,0.4,1.3l1.1,2.8H126.4z M135,6.6h2.9v8.2h1.1V6.6h2.9V5.7H135V6.6z M146.2,14.8h5.1v-1h-4
			v-3.4h3.8V9.6h-3.8v-3h4V5.7h-5.1V14.8z M157.3,10.3c-0.2,1.3-0.4,2.1-0.5,2.6c-0.1,0.5-0.3,0.8-0.4,0.9c-0.2,0.2-0.4,0.3-0.6,0.3
			c-0.2,0-0.5-0.1-0.7-0.2v0.9c0.2,0.1,0.5,0.2,0.8,0.2c0.5,0,1-0.2,1.3-0.5c0.3-0.4,0.6-1,0.8-1.9c0.2-0.9,0.4-2.4,0.7-4.4l0.2-1.5
			h3v8.2h1.1V5.7h-4.9C157.7,7.5,157.5,9.1,157.3,10.3z M173.8,10.2c-0.6-0.4-1.4-0.7-2.6-0.7h-1.8V5.7h-1.1v9.2h3.1
			c1.1,0,1.9-0.2,2.4-0.7c0.6-0.5,0.9-1.1,0.9-2C174.7,11.3,174.4,10.7,173.8,10.2z M171.3,13.9h-1.9v-3.4h1.7
			c0.9,0,1.5,0.1,1.9,0.4c0.4,0.3,0.6,0.7,0.6,1.2C173.6,13.3,172.8,13.9,171.3,13.9z M183.5,6.5c0.7,0,1.4,0.2,2.1,0.5l0.5-0.9
			c-0.7-0.4-1.6-0.5-2.5-0.5c-0.9,0-1.7,0.2-2.4,0.6c-0.7,0.4-1.2,0.9-1.5,1.6c-0.4,0.7-0.5,1.5-0.5,2.5c0,1.5,0.4,2.7,1.1,3.5
			c0.7,0.8,1.8,1.2,3.1,1.2c0.9,0,1.7-0.1,2.4-0.4v-0.9c-0.8,0.2-1.6,0.3-2.2,0.3c-1,0-1.8-0.3-2.4-1c-0.6-0.7-0.8-1.6-0.8-2.8
			c0-1.2,0.3-2.1,0.9-2.8C181.7,6.8,182.5,6.5,183.5,6.5z M197.1,5.7h-1.2l-4.1,4.4V5.7h-1.1v9.2h1.1v-4.7l4.2,4.7h1.3l-4.2-4.7
			L197.1,5.7z M202.4,13.3L202.4,13.3c0-0.8,0-1.6,0-2.6V5.7h-1v9.2h1.2l5.2-7.7h0.1c-0.1,0.9-0.1,1.8-0.1,2.7v5.1h1V5.7h-1.2
			L202.4,13.3z M215.2,13.3L215.2,13.3c0-0.8,0-1.6,0-2.6V5.7h-1v9.2h1.2l5.2-7.7h0.1c-0.1,0.9-0.1,1.8-0.1,2.7v5.1h1V5.7h-1.2
			L215.2,13.3z M218,4.9c0.8,0,1.3-0.2,1.7-0.5c0.4-0.3,0.6-0.8,0.6-1.5h-1c0,0.4-0.2,0.7-0.4,0.9c-0.2,0.2-0.5,0.3-1,0.3
			c-0.5,0-0.8-0.1-1-0.3c-0.2-0.2-0.3-0.5-0.3-0.9h-1c0,0.7,0.2,1.2,0.6,1.5C216.7,4.8,217.3,4.9,218,4.9z M239.3,5.7h-4.1
			c-0.1,1.3-0.3,2.7-0.8,4.3c-0.5,1.6-1,2.9-1.7,4h-0.7v3.4h1v-2.4h6.4v2.4h1v-3.4h-1.2V5.7z M238.3,13.9h-4.4
			c0.6-1,1.1-2.2,1.5-3.6c0.4-1.4,0.7-2.6,0.8-3.7h2.1V13.9z M248.8,5.5c-1.4,0-2.4,0.4-3.1,1.2c-0.7,0.8-1.1,2-1.1,3.5
			c0,1.5,0.4,2.7,1.1,3.5c0.7,0.8,1.8,1.2,3.1,1.2c1.3,0,2.4-0.4,3.1-1.3c0.7-0.8,1.1-2,1.1-3.5c0-1.5-0.4-2.6-1.1-3.5
			C251.1,5.9,250.1,5.5,248.8,5.5z M251.1,13.1c-0.5,0.6-1.3,1-2.3,1c-1,0-1.8-0.3-2.3-1c-0.5-0.6-0.8-1.6-0.8-2.8
			c0-1.2,0.3-2.2,0.8-2.8c0.5-0.6,1.3-1,2.3-1c1,0,1.8,0.3,2.3,1c0.5,0.6,0.8,1.6,0.8,2.8C251.8,11.5,251.6,12.4,251.1,13.1z
			 M265.5,5.7l-2.9,7.6h-0.1l-2.9-7.6H258v9.2h1V9c0-0.9,0-1.7-0.1-2.3h0.1l3.1,8.1h0.9l3.1-8.1h0.1C266,7.5,266,8.3,266,8.9v5.9
			h1.1V5.7H265.5z"/>
	</g>
</g>
<g>
	<g>
		<path class="st1" d="M96,64.6h-4.9v-3.9H90v9.2h1.1v-4.3H96v4.3h1.1v-9.2H96V64.6z M105.6,60.6l-3.7,9.3h1.1l1.1-2.9h3.7l1.1,2.9
			h1.1l-3.6-9.3H105.6z M104.5,66l1.1-2.9c0.2-0.5,0.3-0.9,0.4-1.3c0.1,0.5,0.3,1,0.4,1.3l1.1,2.9H104.5z M118.4,65.8
			c0,0.1-0.1,0.3-0.2,0.7h-0.1c-0.1-0.2-0.1-0.4-0.2-0.6l-2.7-5.3h-1.2l3.6,6.9c-0.3,0.6-0.6,1-0.8,1.2c-0.3,0.2-0.7,0.3-1.1,0.3
			c-0.4,0-0.8-0.1-1.2-0.3v1c0.4,0.1,0.8,0.2,1.2,0.2c0.5,0,1-0.1,1.3-0.2c0.4-0.2,0.7-0.4,1-0.8c0.3-0.4,0.6-0.9,1-1.7l2.9-6.6
			h-1.1L118.4,65.8z M133.1,60.6h-1.2l-4.2,4.5v-4.5h-1.1v9.2h1.1v-4.7l4.3,4.7h1.3l-4.3-4.8L133.1,60.6z M140.6,60.6l-3.7,9.3h1.1
			l1.1-2.9h3.7l1.1,2.9h1.1l-3.6-9.3H140.6z M139.5,66l1.1-2.9c0.2-0.5,0.3-0.9,0.4-1.3c0.1,0.5,0.3,1,0.4,1.3l1.1,2.9H139.5z
			 M158,68.3L158,68.3c0-0.8,0-1.6,0-2.6v-5.1h-1v9.2h1.2l5.2-7.8h0.1c-0.1,0.9-0.1,1.8-0.1,2.7v5.1h1v-9.2h-1.2L158,68.3z
			 M177.5,69.9h1.1v-8.3h4.7v8.3h1.1v-9.2h-6.9V69.9z M192.9,60.6h-2.4v9.2h1.1v-3.6h1.1c1.2,0,2.1-0.3,2.7-0.8c0.6-0.5,1-1.2,1-2.2
			C196.4,61.5,195.2,60.6,192.9,60.6z M194.6,64.9c-0.4,0.3-1.1,0.5-2.1,0.5h-1v-3.8h1.2c0.8,0,1.5,0.1,1.9,0.4
			c0.4,0.3,0.6,0.8,0.6,1.4C195.3,64.1,195.1,64.5,194.6,64.9z M204.3,60.6l-3.7,9.3h1.1l1.1-2.9h3.7l1.1,2.9h1.1l-3.6-9.3H204.3z
			 M203.3,66l1.1-2.9c0.2-0.5,0.3-0.9,0.4-1.3c0.1,0.5,0.3,1,0.4,1.3l1.1,2.9H203.3z M220.2,60.6H219l-4.2,4.5v-4.5h-1.1v9.2h1.1
			v-4.7l4.3,4.7h1.3l-4.3-4.8L220.2,60.6z M224.1,61.6h2.9v8.3h1.1v-8.3h2.9v-1h-6.9V61.6z M237,68.3L237,68.3c0-0.8,0-1.6,0-2.6
			v-5.1h-1v9.2h1.2l5.2-7.8h0.1c-0.1,0.9-0.1,1.8-0.1,2.7v5.1h1v-9.2h-1.2L237,68.3z M256,60.6h-1.2l-4.2,4.5v-4.5h-1.1v9.2h1.1
			v-4.7l4.3,4.7h1.3l-4.3-4.8L256,60.6z M264.4,60.6h-0.9l-3.7,9.3h1.1l1.1-2.9h3.7l1.1,2.9h1.1L264.4,60.6z M262.4,66l1.1-2.9
			c0.2-0.5,0.3-0.9,0.4-1.3c0.1,0.5,0.3,1,0.4,1.3l1.1,2.9H262.4z"/>
	</g>
</g>
<path class="st2" d="M45.9,15.1c2.2,0,4,1.8,4,4v16.2c0,2.2-1.8,4-4,4H25.2c-2.2,0-4-1.8-4-4V19.1c0-2.2,1.8-4,4-4H45.9 M45.9,12.1
	H25.2c-3.9,0-7,3.1-7,7v16.2c0,3.9,3.1,7,7,7h20.6c3.9,0,7-3.1,7-7V19.1C52.9,15.2,49.7,12.1,45.9,12.1L45.9,12.1z"/>
<path class="st2" d="M27.6,29.5c2.2,0,4,1.8,4,4v15.2c0,2.2-1.8,4-4,4H9c-2.2,0-4-1.8-4-4V33.5c0-2.2,1.8-4,4-4H27.6 M27.6,26.5H9
	c-3.9,0-7,3.1-7,7v15.2c0,3.9,3.1,7,7,7h18.6c3.9,0,7-3.1,7-7V33.5C34.6,29.6,31.5,26.5,27.6,26.5L27.6,26.5z"/>
<path class="st2" d="M63,29.5c2.2,0,4,1.8,4,4v15.2c0,2.2-1.8,4-4,4H44.4c-2.2,0-4-1.8-4-4V33.5c0-2.2,1.8-4,4-4H63 M63,26.5H44.4
	c-3.9,0-7,3.1-7,7v15.2c0,3.9,3.1,7,7,7H63c3.9,0,7-3.1,7-7V33.5C70,29.6,66.9,26.5,63,26.5L63,26.5z"/>
</svg>
