<?xml version="1.0" encoding="UTF-8"?>
<svg width="18px" height="20px" viewBox="0 0 18 20" version="1.1" xmlns="http://www.w3.org/2000/svg" xmlns:xlink="http://www.w3.org/1999/xlink">
    <!-- Generator: Sketch 49 (51002) - http://www.bohemiancoding.com/sketch -->
    <title>extended search icon</title>
    <desc>Created with Sketch.</desc>
    <defs></defs>
    <g id="Page-1" stroke="none" stroke-width="1" fill="none" fill-rule="evenodd">
        <g id="Mainpage" transform="translate(-517.000000, -447.000000)" fill="#FFFFFF">
            <g id="Cover" transform="translate(1.000000, 161.367188)">
                <g id="Кнопки" transform="translate(496.500000, 275.445312)">
                    <g id="Extended-search-link">
                        <g id="extended-search-icon" transform="translate(20.000000, 10.000000)">
                            <path d="M14.2745869,3.13566211 L16.0281289,3.13566211 C16.4459229,3.13566211 16.7846118,3.47435104 16.7846118,3.89214501 C16.7846118,4.30993898 16.4459229,4.64862792 16.0281289,4.64862792 L14.2745869,4.64862792 L14.2745869,6.40216991 C14.2745869,6.81996388 13.935898,7.15865281 13.518104,7.15865281 C13.10031,7.15865281 12.7616211,6.81996388 12.7616211,6.40216991 L12.7616211,4.64862792 L11.0080791,4.64862792 C10.5902852,4.64862792 10.2515962,4.30993898 10.2515962,3.89214501 C10.2515962,3.47435104 10.5902852,3.13566211 11.0080791,3.13566211 L12.7616211,3.13566211 L12.7616211,1.38212012 C12.7616211,0.964326147 13.10031,0.625637216 13.518104,0.625637216 C13.935898,0.625637216 14.2745869,0.964326147 14.2745869,1.38212012 L14.2745869,3.13566211 Z M10.2002754,15.1016811 L13.7396727,18.6410784 C14.0350977,18.9365034 14.0350977,19.4154819 13.7396727,19.7109068 C13.4442478,20.0063318 12.9652693,20.0063318 12.6698444,19.7109068 L9.1201331,16.1611956 C9.11066175,16.1517242 9.10149405,16.1420642 9.09263,16.1322276 C8.19407042,16.7639512 7.09884787,17.1348325 5.91700136,17.1348325 C2.86400645,17.1348325 0.389065081,14.6598911 0.389065081,11.6068962 C0.389065081,8.55390129 2.86400645,6.07895991 5.91700136,6.07895991 C8.96999626,6.07895991 11.4449376,8.55390129 11.4449376,11.6068962 C11.4449376,12.9325868 10.9782814,14.149284 10.2002754,15.1016811 Z M5.91700136,15.7387964 C8.19898683,15.7387964 10.0489016,13.8888817 10.0489016,11.6068962 C10.0489016,9.32491072 8.19898683,7.47499599 5.91700136,7.47499599 C3.63501589,7.47499599 1.78510115,9.32491072 1.78510115,11.6068962 C1.78510115,13.8888817 3.63501589,15.7387964 5.91700136,15.7387964 Z" id="Combined-Shape"></path>
                        </g>
                    </g>
                </g>
            </g>
        </g>
    </g>
</svg>