<?xml version="1.0" encoding="UTF-8"?>
<svg width="20px" height="16px" viewBox="0 0 20 16" version="1.1" xmlns="http://www.w3.org/2000/svg" xmlns:xlink="http://www.w3.org/1999/xlink">
    <!-- Generator: Sketch 49 (51002) - http://www.bohemiancoding.com/sketch -->
    <title>Icons / icon citate</title>
    <desc>Created with Sketch.</desc>
    <defs></defs>
    <g id="Page-1" stroke="none" stroke-width="1" fill="none" fill-rule="evenodd" stroke-linecap="round" stroke-linejoin="round">
        <g id="Articles" transform="translate(-1088.000000, -825.000000)" stroke="#7E8C9F" stroke-width="1.6">
            <g id="Контент" transform="translate(202.000000, 654.123047)">
                <g id="Sidebar" transform="translate(874.000000, 3.000000)">
                    <g id="ACTIONS" transform="translate(0.000000, 36.876953)">
                        <g id="item-03-copy" transform="translate(0.500000, 121.000000)">
                            <g id="Icons-/-icon-citate" transform="translate(11.451172, 10.804688)">
                                <path d="M12.5828041,13.7949219 C16.7300753,11.6245117 18.8037109,8.71075439 18.8037109,5.0536499 C18.8037109,1.61057899 16.1953977,0.765991211 14.7128116,0.765991211 C13.2302255,0.765991211 10.9686279,1.67682871 10.9686279,4.81445312 C10.9686279,7.95207754 12.5739223,8.87231445 14.0074383,8.87231445 C14.1107666,10.0915324 13.6358885,11.7324016 12.5828041,13.7949219 Z" id="Path-5-Copy"></path>
                                <path d="M2.56888812,13.7949219 C6.71615932,11.6245117 8.78979492,8.71075439 8.78979492,5.0536499 C8.78979492,1.61057899 6.18148164,0.765991211 4.69889556,0.765991211 C3.21630948,0.765991211 0.954711914,1.67682871 0.954711914,4.81445312 C0.954711914,7.95207754 2.56000628,8.87231445 3.99352233,8.87231445 C4.09685055,10.0915324 3.62197249,11.7324016 2.56888812,13.7949219 Z" id="Path-5-Copy-2"></path>
                            </g>
                        </g>
                    </g>
                </g>
            </g>
        </g>
    </g>
</svg>