<?xml version="1.0" encoding="UTF-8"?>
<svg width="16px" height="22px" viewBox="0 0 16 22" version="1.1" xmlns="http://www.w3.org/2000/svg" xmlns:xlink="http://www.w3.org/1999/xlink">
    <!-- Generator: Sketch 50.2 (55047) - http://www.bohemiancoding.com/sketch -->
    <title>Fill 1</title>
    <desc>Created with Sketch.</desc>
    <defs></defs>
    <g id="Page-1" stroke="none" stroke-width="1" fill="none" fill-rule="evenodd">
        <g id="Magazines-Archieve" transform="translate(-1087.000000, -713.000000)" fill="#7E8C9F" stroke="#7E8C9F" stroke-width="0.4">
            <g id="ACTIONS" transform="translate(1071.000000, 544.037109)">
                <g id="item-03-copy" transform="translate(0.500000, 121.000000)">
                    <path d="M29.0508709,53.9282044 L29.0508709,64.6077391 L27.8808767,64.6077391 L27.8808767,53.9282044 C27.8808767,51.4272914 25.8462791,49.3934252 23.3453661,49.3934252 C20.8448189,49.3934252 18.8102212,51.4272914 18.8102212,53.9282044 L18.8102212,65.741891 C18.8102212,67.5365649 20.2702453,68.9965889 22.0652849,68.9965889 C23.8606902,68.9965889 25.3207143,67.5365649 25.3207143,65.741891 L25.3207143,57.5855793 C25.3207143,56.496413 24.4345323,55.6109626 23.3453661,55.6109626 C22.2565656,55.6109626 21.3703837,56.496413 21.3703837,57.5855793 L21.3703837,64.6077391 L20.2003894,64.6077391 L20.2003894,57.5855793 C20.2003894,55.8516178 21.6110389,54.4402369 23.3453661,54.4402369 C25.080059,54.4402369 26.4907085,55.8516178 26.4907085,57.5855793 L26.4907085,65.741891 C26.4907085,68.1820916 24.5054854,70.1669489 22.0652849,70.1669489 C19.6254501,70.1669489 17.640227,68.1820916 17.640227,65.741891 L17.640227,53.9282044 C17.640227,50.7821305 20.199658,48.2226995 23.3453661,48.2226995 C26.49144,48.2226995 29.0508709,50.7821305 29.0508709,53.9282044" id="Fill-1" transform="translate(23.345549, 59.194824) rotate(16.000000) translate(-23.345549, -59.194824) "></path>
                </g>
            </g>
        </g>
    </g>
</svg>