<?xml version="1.0" encoding="UTF-8"?>
<svg width="21px" height="19px" viewBox="0 0 21 19" version="1.1" xmlns="http://www.w3.org/2000/svg" xmlns:xlink="http://www.w3.org/1999/xlink">
    <!-- Generator: Sketch 50.2 (55047) - http://www.bohemiancoding.com/sketch -->
    <title>favs-del</title>
    <desc>Created with Sketch.</desc>
    <defs>
        <polygon id="path-1" points="0.0037 0.954 16.209 0.954 16.209 14.081 0.0037 14.081"></polygon>
        <polygon id="path-3" points="0 0.34 17.8681 0.34 17.8681 18.2369 0 18.2369"></polygon>
    </defs>
    <g id="Page-1" stroke="none" stroke-width="1" fill="none" fill-rule="evenodd">
        <g id="favs-del">
            <g id="Group-3" transform="translate(4.000000, 0.000000)">
                <mask id="mask-2" fill="white">
                    <use xlink:href="#path-1"></use>
                </mask>
                <g id="Clip-2"></g>
                <path d="M1.6267,2.998 C1.8127,2.97 1.9937,2.954 2.1627,2.954 C3.1977,2.954 4.3267,3.517 5.5197,4.625 L6.3377,5.387 L7.0037,4.489 C7.7687,3.456 8.8167,2.954 10.2077,2.954 C12.3387,2.954 14.2097,4.961 14.2097,7.25 C14.2097,8.932 13.2277,10.744 11.2957,12.667 L12.7097,14.081 C15.0517,11.749 16.2097,9.488 16.2097,7.25 C16.2097,3.896 13.4047,0.954 10.2077,0.954 C8.5547,0.954 7.1777,1.472 6.1027,2.496 C4.7847,1.472 3.4627,0.954 2.1627,0.954 C1.5127,0.954 0.7577,1.09 0.0037,1.375 L1.6267,2.998 Z" id="Fill-1" fill="#7E8C9F" mask="url(#mask-2)"></path>
            </g>
            <path d="M12.0432,15.3809 C11.4672,15.7959 10.8522,16.2149 10.1952,16.6389 C4.8042,13.2179 2.0722,10.0609 2.0722,7.2499 C2.0722,6.6509 2.1662,6.1249 2.3262,5.6629 L0.8002,4.1379 C0.3532,4.9819 0.0722,6.0069 0.0722,7.2499 C0.0722,10.9429 3.2132,14.6789 9.6742,18.6719 L10.2052,18.9999 L10.7322,18.6679 C11.7292,18.0419 12.6352,17.4229 13.4722,16.8089 L12.0432,15.3809 Z" id="Fill-4" fill="#7E8C9F"></path>
            <g id="Group-8">
                <mask id="mask-4" fill="white">
                    <use xlink:href="#path-3"></use>
                </mask>
                <g id="Clip-7"></g>
                <path d="M16.2541,17.9639 L0.2841,1.9939 C-0.0949,1.6149 -0.0949,1.0019 0.2841,0.6229 C0.6621,0.2449 1.2751,0.2449 1.6531,0.6229 L17.5741,16.5449 C17.9661,16.9369 17.9661,17.5719 17.5741,17.9639 C17.2101,18.3279 16.6181,18.3279 16.2541,17.9639" id="Fill-6" fill="#7E8C9F" mask="url(#mask-4)"></path>
            </g>
        </g>
    </g>
</svg>