<?xml version="1.0" encoding="UTF-8"?>
<svg width="19px" height="17px" viewBox="0 0 19 17" version="1.1" xmlns="http://www.w3.org/2000/svg" xmlns:xlink="http://www.w3.org/1999/xlink">
    <!-- Generator: Sketch 49 (51002) - http://www.bohemiancoding.com/sketch -->
    <title>Combined Shape</title>
    <desc>Created with Sketch.</desc>
    <defs></defs>
    <g id="Page-1" stroke="none" stroke-width="1" fill="none" fill-rule="evenodd">
        <g id="Articles" transform="translate(-896.000000, -703.000000)" fill="#B2C1D6">
            <g id="Контент" transform="translate(202.000000, 654.123047)">
                <g id="-Шапка-выдачи">
                    <g id="Как-отображать" transform="translate(654.687500, 39.000000)">
                        <g id="Show-Columns" transform="translate(34.479492, 4.000000)">
                            <path d="M21.6063436,16.3265449 L16.4396769,16.3265449 L16.4396769,20.4399346 L21.6063436,20.4399346 L21.6063436,16.3265449 Z M23.1618991,16.3265449 L23.1618991,20.4399346 L23.1618991,21.9954902 L14.8841214,21.9954902 L14.8841214,20.4399346 L14.8841214,16.3265449 L14.8841214,14.7709893 L23.1618991,14.7709893 L23.1618991,16.3265449 Z M21.6063436,7.56006538 L16.4396769,7.56006538 L16.4396769,11.6734551 L21.6063436,11.6734551 L21.6063436,7.56006538 Z M23.1618991,7.56006538 L23.1618991,11.6734551 L23.1618991,13.2290107 L14.8841214,13.2290107 L14.8841214,11.6734551 L14.8841214,7.56006538 L14.8841214,6.00450982 L23.1618991,6.00450982 L23.1618991,7.56006538 Z M11.5603231,16.3265449 L6.39365641,16.3265449 L6.39365641,20.4399346 L11.5603231,20.4399346 L11.5603231,16.3265449 Z M13.1158786,16.3265449 L13.1158786,20.4399346 L13.1158786,21.9954902 L4.83810086,21.9954902 L4.83810086,20.4399346 L4.83810086,16.3265449 L4.83810086,14.7709893 L13.1158786,14.7709893 L13.1158786,16.3265449 Z M11.5603231,7.56006538 L6.39365641,7.56006538 L6.39365641,11.6734551 L11.5603231,11.6734551 L11.5603231,7.56006538 Z M13.1158786,7.56006538 L13.1158786,11.6734551 L13.1158786,13.2290107 L4.83810086,13.2290107 L4.83810086,11.6734551 L4.83810086,7.56006538 L4.83810086,6.00450982 L13.1158786,6.00450982 L13.1158786,7.56006538 Z" id="Combined-Shape"></path>
                        </g>
                    </g>
                </g>
            </g>
        </g>
    </g>
</svg>