<?xml version="1.0" encoding="UTF-8"?>
<svg width="15px" height="15px" viewBox="0 0 15 15" version="1.1" xmlns="http://www.w3.org/2000/svg" xmlns:xlink="http://www.w3.org/1999/xlink">
    <!-- Generator: Sketch 49 (51002) - http://www.bohemiancoding.com/sketch -->
    <title>info icon</title>
    <desc>Created with Sketch.</desc>
    <defs></defs>
    <g id="Page-1" stroke="none" stroke-width="1" fill="none" fill-rule="evenodd">
        <g id="Issue" transform="translate(-627.000000, -955.000000)">
            <g id="Контент" transform="translate(181.000000, 695.500000)">
                <g id="Последние-журналы" transform="translate(20.500000, 55.500000)">
                    <g id="item" transform="translate(0.390625, 0.769531)">
                        <g id="ВАК" transform="translate(254.000000, 170.000000)">
                            <g id="info-icon" transform="translate(172.000000, 34.000000)">
                                <path d="M7.86621094,11.121582 L6.13802123,11.121582 L6.13802123,5.56713867 L7.86621094,5.56713867 L7.86621094,11.121582 Z M6.01317096,3.74243944 C6.01317096,3.42777351 6.0993282,3.18553433 6.27164525,3.01571462 C6.44396231,2.84589491 6.68994747,2.76098633 7.00960809,2.76098633 C7.31927933,2.76098633 7.56026986,2.84589491 7.73258692,3.01571462 C7.90490397,3.18553433 7.99106121,3.42777351 7.99106121,3.74243944 C7.99106121,4.04212128 7.90490397,4.27811719 7.73258692,4.45043425 C7.56026986,4.62275131 7.31927933,4.70890854 7.00960809,4.70890854 C6.68994747,4.70890854 6.44396231,4.62275131 6.27164525,4.45043425 C6.0993282,4.27811719 6.01317096,4.04212128 6.01317096,3.74243944 Z" id="i" fill="#6A788B"></path>
                                <circle id="Oval-2" stroke="#6A788B" cx="6.90852905" cy="7.09912109" r="6.53234863"></circle>
                            </g>
                        </g>
                    </g>
                </g>
            </g>
        </g>
    </g>
</svg>