<?xml version="1.0" encoding="UTF-8"?>
<svg width="17px" height="20px" viewBox="0 0 17 20" version="1.1" xmlns="http://www.w3.org/2000/svg" xmlns:xlink="http://www.w3.org/1999/xlink">
    <!-- Generator: Sketch 49 (51002) - http://www.bohemiancoding.com/sketch -->
    <title>Combined Shape</title>
    <desc>Created with Sketch.</desc>
    <defs></defs>
    <g id="Page-1" stroke="none" stroke-width="1" fill="none" fill-rule="evenodd">
        <g id="Articles" transform="translate(-866.000000, -701.000000)" fill="#FFFFFF">
            <g id="Контент" transform="translate(202.000000, 654.123047)">
                <g id="-Шапка-выдачи">
                    <g id="Как-отображать" transform="translate(654.687500, 39.000000)">
                        <g id="Show-Rows" transform="translate(3.899414, 4.000000)">
                            <path d="M20.4921129,20.0225966 L7.5078871,20.0225966 L7.5078871,21.8701172 L20.4921129,21.8701172 L20.4921129,20.0225966 Z M20.9523315,18.467041 L22.0476685,18.467041 L22.0476685,21.8701172 L22.0476685,23.4256727 L5.95233154,23.4256727 L5.95233154,21.8701172 L5.95233154,20.0225966 L5.95233154,18.467041 L20.9523315,18.467041 Z M20.4921129,13.099745 L7.5078871,13.099745 L7.5078871,14.9472656 L20.4921129,14.9472656 L20.4921129,13.099745 Z M20.9523315,11.5441895 L22.0476685,11.5441895 L22.0476685,14.9472656 L22.0476685,16.5028212 L5.95233154,16.5028212 L5.95233154,14.9472656 L5.95233154,13.099745 L5.95233154,11.5441895 L20.9523315,11.5441895 Z M20.4921129,6.09974501 L7.5078871,6.09974501 L7.5078871,7.94726562 L20.4921129,7.94726562 L20.4921129,6.09974501 Z M20.9523315,4.54418945 L22.0476685,4.54418945 L22.0476685,7.94726562 L22.0476685,9.50282118 L5.95233154,9.50282118 L5.95233154,7.94726562 L5.95233154,6.09974501 L5.95233154,4.54418945 L20.9523315,4.54418945 Z" id="Combined-Shape"></path>
                        </g>
                    </g>
                </g>
            </g>
        </g>
    </g>
</svg>