<?xml version="1.0" encoding="UTF-8"?>
<svg width="16px" height="16px" viewBox="0 0 16 16" version="1.1" xmlns="http://www.w3.org/2000/svg" xmlns:xlink="http://www.w3.org/1999/xlink">
    <!-- Generator: Sketch 49 (51002) - http://www.bohemiancoding.com/sketch -->
    <title>Search icon</title>
    <desc>Created with Sketch.</desc>
    <defs></defs>
    <g id="Page-1" stroke="none" stroke-width="1" fill="none" fill-rule="evenodd">
        <g id="Mainpage" transform="translate(-1070.000000, -384.000000)" fill="#FFFFFF">
            <g id="Cover" transform="translate(1.000000, 161.367188)">
                <g id="Search-alternatives" transform="translate(250.000000, 204.000000)">
                    <g id="SEARCH-BUTTON" transform="translate(778.887695, 0.739769)">
                        <g id="Icons-/-Search-icon" transform="translate(40.000000, 17.000000)">
                            <path d="M11.2756249,10.7698702 L15.1081109,14.6023561 C15.4279992,14.9222445 15.4279992,15.440886 15.1081109,15.7607743 C14.7882225,16.0806627 14.2695811,16.0806627 13.9496927,15.7607743 L10.1060387,11.9171204 C10.0957831,11.9068647 10.0858562,11.8964048 10.0762582,11.8857536 C9.10329114,12.5697886 7.91737595,12.9713817 6.63766369,12.9713817 C3.33185792,12.9713817 0.651972848,10.2914966 0.651972848,6.98569084 C0.651972848,3.67988507 3.33185792,1 6.63766369,1 C9.94346945,1 12.6233545,3.67988507 12.6233545,6.98569084 C12.6233545,8.42115855 12.1180556,9.73860739 11.2756249,10.7698702 Z M6.63766369,11.4597434 C9.10861466,11.4597434 11.1117162,9.45664181 11.1117162,6.98569084 C11.1117162,4.51473986 9.10861466,2.51163832 6.63766369,2.51163832 C4.16671271,2.51163832 2.16361117,4.51473986 2.16361117,6.98569084 C2.16361117,9.45664181 4.16671271,11.4597434 6.63766369,11.4597434 Z" id="Combined-Shape"></path>
                        </g>
                    </g>
                </g>
            </g>
        </g>
    </g>
</svg>