<?xml version="1.0" encoding="UTF-8"?>
<svg width="17px" height="15px" viewBox="0 0 17 15" version="1.1" xmlns="http://www.w3.org/2000/svg" xmlns:xlink="http://www.w3.org/1999/xlink">
    <!-- Generator: Sketch 50.2 (55047) - http://www.bohemiancoding.com/sketch -->
    <title>Group 3</title>
    <desc>Created with Sketch.</desc>
    <defs>
        <polygon id="path-1" points="0.0037 0.954 16.209 0.954 16.209 14.081 0.0037 14.081"></polygon>
    </defs>
    <g id="Page-1" stroke="none" stroke-width="1" fill="none" fill-rule="evenodd">
        <g id="Group-3">
            <mask id="mask-2" fill="white">
                <use xlink:href="#path-1"></use>
            </mask>
            <g id="Clip-2"></g>
            <path d="M1.6267,2.998 C1.8127,2.97 1.9937,2.954 2.1627,2.954 C3.1977,2.954 4.3267,3.517 5.5197,4.625 L6.3377,5.387 L7.0037,4.489 C7.7687,3.456 8.8167,2.954 10.2077,2.954 C12.3387,2.954 14.2097,4.961 14.2097,7.25 C14.2097,8.932 13.2277,10.744 11.2957,12.667 L12.7097,14.081 C15.0517,11.749 16.2097,9.488 16.2097,7.25 C16.2097,3.896 13.4047,0.954 10.2077,0.954 C8.5547,0.954 7.1777,1.472 6.1027,2.496 C4.7847,1.472 3.4627,0.954 2.1627,0.954 C1.5127,0.954 0.7577,1.09 0.0037,1.375 L1.6267,2.998 Z" id="Fill-1" fill="#7E8C9F" mask="url(#mask-2)"></path>
        </g>
    </g>
</svg>