<svg id="Слой_1" data-name="Слой 1" xmlns="http://www.w3.org/2000/svg" viewBox="0 0 16.24 15.51"><defs><style>.cls-1{fill:#e63201;}</style></defs><title>my-searches</title><path id="Path-4" class="cls-1" d="M11.91,8.23Q7.79,5.61,7.78,3.31A2.34,2.34,0,0,1,10,.85h.15A2.6,2.6,0,0,1,12,2,2,2,0,0,1,13.73.85,2.43,2.43,0,0,1,16,3.31Q16,5.59,11.91,8.23Z" transform="translate(0.25 0.01)"/><path class="cls-1" d="M15,14.33l-4.12-4.12a5.88,5.88,0,0,0,.81-1.16c-.42-.27-.82-.53-1.18-.8A4.78,4.78,0,1,1,6.19,1.4a5.58,5.58,0,0,1,1,.12A2.68,2.68,0,0,1,8.49.45,6,6,0,0,0,6.19,0a6.19,6.19,0,0,0-.5,12.37,4.17,4.17,0,0,0,.5,0,6.12,6.12,0,0,0,3.66-1.22L14,15.3a.71.71,0,0,0,1-1h0Z" transform="translate(0.25 0.01)"/></svg>