<?xml version="1.0" encoding="UTF-8"?>
<svg width="20px" height="19px" viewBox="0 0 20 19" version="1.1" xmlns="http://www.w3.org/2000/svg" xmlns:xlink="http://www.w3.org/1999/xlink">
    <!-- Generator: Sketch 49 (51002) - http://www.bohemiancoding.com/sketch -->
    <title>Icons / recommend</title>
    <desc>Created with Sketch.</desc>
    <defs></defs>
    <g id="Page-1" stroke="none" stroke-width="1" fill="none" fill-rule="evenodd">
        <g id="Articles" transform="translate(-1089.000000, -782.000000)" stroke="#7E8C9F" stroke-width="1.8">
            <g id="Контент" transform="translate(202.000000, 654.123047)">
                <g id="Sidebar" transform="translate(874.000000, 3.000000)">
                    <g id="ACTIONS" transform="translate(0.000000, 36.876953)">
                        <g id="item-03" transform="translate(0.500000, 80.927734)">
                            <g id="Icons-/-recommend" transform="translate(13.154297, 7.944336)">
                                <path d="M0.520799152,14.9933783 L4.32765811,14.9933783 C5.28667523,15.7958533 6.00738105,16.2316351 6.48977559,16.3007235 C6.97217012,16.3698119 9.26345669,16.4043561 13.3636353,16.4043561 C15.1364964,16.1547633 16.1201755,15.6844374 16.3146725,14.9933783 C16.5091695,14.3023193 16.9039354,12.0884292 17.4989703,8.35170814 C17.5463702,6.50136305 16.7538649,5.56998129 15.1214544,5.55756287 C13.4890439,5.54514444 12.2550724,5.55135365 11.4195399,5.5761905 L11.4195399,2.62698985 C11.3205423,1.5583058 10.9766744,0.820546508 10.3879362,0.41371196 C9.79919797,0.00687741293 9.04543465,-0.0999035377 8.12664623,0.0933691084 C8.34458081,1.43193523 8.34458081,2.56446046 8.12664623,3.49094481 C7.79974435,4.88067134 6.48374128,6.19719913 5.77851476,6.65029667 C5.30836374,6.95236171 3.55579187,7.10339422 0.520799152,7.10339422 L0.520799152,14.9933783 Z" id="Path-6"></path>
                            </g>
                        </g>
                    </g>
                </g>
            </g>
        </g>
    </g>
</svg>