<svg id="Слой_1" data-name="Слой 1" xmlns="http://www.w3.org/2000/svg" viewBox="0 0 15.18 15.5"><defs><style>.cls-1{fill:#e63201;}</style></defs><title>save-search</title><path class="cls-1" d="M17.39,15.58l-4.12-4.12a6.14,6.14,0,0,0,.8-1.16c-.42-.27-.81-.53-1.18-.8A4.78,4.78,0,1,1,8.6,2.65a5,5,0,0,1,1,.12A2.75,2.75,0,0,1,10.9,1.7a6.12,6.12,0,0,0-2.3-.45A6.19,6.19,0,1,0,12.26,12.4l4.16,4.15a.69.69,0,1,0,1-1Z" transform="translate(-2.41 -1.25)"/><path class="cls-1" d="M17.21,1.77a.76.76,0,0,0-1.05.28l-2.5,4.33L11.12,3.85a.68.68,0,0,0-1,0L10,4a.69.69,0,0,0,0,1l3.24,3.23.1.07.06.06h.05l.06,0A.75.75,0,0,0,14.49,8l3-5.2A.77.77,0,0,0,17.21,1.77Z" transform="translate(-2.41 -1.25)"/></svg>