<?xml version="1.0" encoding="UTF-8"?>
<svg width="20px" height="18px" viewBox="0 0 20 18" version="1.1" xmlns="http://www.w3.org/2000/svg" xmlns:xlink="http://www.w3.org/1999/xlink">
    <!-- Generator: Sketch 49 (51002) - http://www.bohemiancoding.com/sketch -->
    <title>Icons / Bell Icon</title>
    <desc>Created with Sketch.</desc>
    <defs></defs>
    <g id="Icons-/-Bell-Icon" stroke="none" stroke-width="1" fill="none" fill-rule="evenodd">
        <circle id="Oval-6" fill="#E63201" cx="5.02160645" cy="15.2180766" r="1.5"></circle>
        <path d="M12.8881836,4.66125488 C12.0090332,3.44958496 10.8915609,2.921875 9.5357666,3.078125 C7.5020752,3.3125 6.76879883,5.03137207 5.94030762,6.43603516 C5.11181641,7.84069824 4.30871582,8.6065484 3.10876465,9 C1.90881348,9.3934516 0.607788086,10.3274116 2.35656738,11.1358832 C3.52242025,11.6748644 6.22535197,12.9959436 10.4653625,15.0991211 C11.059255,15.3391927 11.4812826,15.3391927 11.7314453,15.0991211 C11.9816081,14.8590495 12.0372009,14.3659973 11.8982239,13.6199646" id="Path-14" stroke="#E63201" stroke-width="1.2" stroke-linecap="round"></path>
        <path d="M13.4865791,13.0602427 C10.7306338,11.3110674 9.35266113,9.67206114 9.35266113,8.143224 C9.35266113,6.3421326 10.7737189,5.67970501 11.6578701,5.67970501 C12.2473042,5.67970501 12.8568739,6.04909411 13.4865791,6.78787231 C13.9202232,6.04909411 14.5250196,5.67970501 15.3009682,5.67970501 C16.4648911,5.67970501 17.5664062,6.77938361 17.5664062,8.143224 C17.5664062,9.66431119 16.2064639,11.3033174 13.4865791,13.0602427 Z" id="Path-4" fill="#E63201"></path>
    </g>
</svg>