<?xml version="1.0" encoding="UTF-8"?>
<svg width="32px" height="33px" viewBox="0 0 32 33" version="1.1" xmlns="http://www.w3.org/2000/svg" xmlns:xlink="http://www.w3.org/1999/xlink">
    <!-- Generator: Sketch 49 (51002) - http://www.bohemiancoding.com/sketch -->
    <title>tw</title>
    <desc>Created with Sketch.</desc>
    <defs></defs>
    <g id="Symbols" stroke="none" stroke-width="1" fill="none" fill-rule="evenodd">
        <g id="Modules-/-Footer" transform="translate(-1150.000000, -70.000000)">
            <g id="tw" transform="translate(1150.000000, 70.119629)">
                <g id="Group-2">
                    <rect id="rect2990-1" fill="#55ACEE" fill-rule="nonzero" x="0.101117886" y="0.101117886" width="31.8988821" height="31.8988821" rx="15.9494411"></rect>
                    <path d="M19.8688551,7.75365971 C17.605898,7.8110005 15.7905831,9.66321483 15.7905831,11.940388 C15.7905831,12.2681981 15.8257497,12.5886728 15.8974443,12.8957595 C12.4162766,12.7208732 9.32991936,11.0534402 7.26401186,8.51923288 C6.90346071,9.13755507 6.69621176,9.85781077 6.69621176,10.626154 C6.69621176,12.0791271 7.43678195,13.3601677 8.56070142,14.1111069 C7.87441484,14.0891426 7.22757951,13.9000907 6.66271794,13.5863703 C6.66239895,13.6037756 6.66271794,13.622779 6.66271794,13.6405984 C6.66271794,15.6696238 8.10696534,17.3605695 10.0232652,17.7459845 C9.67183391,17.8413022 9.30166461,17.8927194 8.91956385,17.8927194 C8.64935862,17.8927194 8.38736098,17.867074 8.13166146,17.817757 C8.6650248,19.4816722 10.2098775,20.6933679 12.0424644,20.7269351 C10.6089688,21.8504411 8.80566315,22.5196522 6.84294662,22.5196522 C6.50519105,22.5196522 6.17072553,22.5011904 5.84291667,22.4622342 C7.69705323,23.6512223 9.89744449,24.3442683 12.2625667,24.3442683 C19.9671369,24.3442683 24.179989,17.961903 24.179989,12.4268459 C24.179989,12.2453285 24.1766907,12.0628306 24.1688244,11.88297 C24.9868993,11.2936573 25.6970705,10.5554814 26.2582012,9.71544096 C25.5076779,10.0490535 24.7005239,10.2750405 23.8530255,10.3757478 C24.7183439,9.85771635 25.3822968,9.03716482 25.695186,8.05829403 C24.8858143,8.53861272 23.9892382,8.88771919 23.0348192,9.07586837 C22.2710343,8.26193777 21.1820447,7.75365971 19.9773113,7.75365971 C19.9411724,7.75365971 19.9047745,7.7527474 19.8688551,7.75365971 Z" id="rect2989" fill="#FFFFFF" fill-rule="nonzero"></path>
                </g>
            </g>
        </g>
    </g>
</svg>