<?xml version="1.0" encoding="UTF-8"?>
<svg width="33px" height="33px" viewBox="0 0 33 33" version="1.1" xmlns="http://www.w3.org/2000/svg" xmlns:xlink="http://www.w3.org/1999/xlink">
    <!-- Generator: Sketch 49.1 (51147) - http://www.bohemiancoding.com/sketch -->
    <title>Artboard</title>
    <desc>Created with Sketch.</desc>
    <defs></defs>
    <g id="Artboard" stroke="none" stroke-width="1" fill="none" fill-rule="evenodd">
        <g id="vk" fill-rule="nonzero">
            <path d="M16.5144318,32.4810407 C7.69509463,32.4810407 0.545620952,25.331567 0.545620952,16.5122298 C0.545620952,7.69289255 7.69509463,0.543418865 16.5144318,0.543418865 C25.3337691,0.543418865 32.4832428,7.69289255 32.4832428,16.5122298 C32.4832428,25.331567 25.3337691,32.4810407 16.5144318,32.4810407 Z" id="Shape" fill="#4C75A3"></path>
            <path d="M27.3476115,11.619723 C27.0620443,11.3786937 25.9605706,11.3883 24.8680794,11.3942883 C23.7515102,11.4004013 22.6439234,11.4066392 22.3884848,11.5070056 C22.1513854,11.6001986 21.6171788,12.8865612 20.9233464,14.2128458 C20.1386914,15.7126664 19.1693971,17.1537892 18.5564692,17.144183 C17.7621456,17.1317698 17.9459117,14.6665846 17.9928825,12.8599257 C18.0241339,11.6602064 17.8295764,11.2860622 17.6547928,11.1687912 C17.2306213,10.884222 16.0768747,10.6050797 16.0768747,10.6050797 C16.0768747,10.6050797 12.6270501,10.3433409 12.1321417,11.84522 C12.7882353,11.9313643 13.9224575,11.7215241 13.4846252,16.3549744 C13.4633542,16.5799725 12.9562197,18.4889315 11.3431827,15.9040427 C10.9447109,15.2654774 9.39654721,11.4088848 8.86365053,11.3942883 C7.07439517,11.345259 5.31994682,11.2713409 4.69342051,11.619723 C4.12247314,11.9372902 5.46622363,14.6034579 7.73653942,18.1588887 C9.59310082,21.0663974 11.559323,23.337836 14.9498259,23.9088458 C15.5831515,23.9721596 17.2533269,24.047762 17.7675102,23.7960661 C18.1263094,23.6204091 17.6903484,21.0989588 18.8945589,20.8647288 C19.4360014,20.7594345 21.4932957,23.4834267 22.2757675,23.7960661 C22.7504653,23.9856957 23.7969215,24.0561206 24.8680794,24.0215631 C26.0268786,23.9841362 27.3335141,24.1226781 27.4603289,23.3450719 C27.7439,21.60653 23.9676505,19.3460076 23.8536856,18.271606 C23.7719702,17.5009238 25.2349877,16.0801986 25.9951281,15.0020544 C26.9213815,13.6883701 27.9251086,12.1072084 27.3476115,11.619723 Z" id="Path" fill="#FFFFFF"></path>
        </g>
    </g>
</svg>